# xmcd CD database file
#
# Track frame offsets:
#	182
#	13162
#	26792
#	40630
#	53527
#	67355
#	81607
#	94225
#	107842
#	120345
#	134815
#	153700
#	168815
#	181857
#	196962
#	211590
#
# Disc length: 2964 seconds
#
# Revision: 5
# Processed by: cddbd v1.5.2PL0 Copyright (c) Steve Scherf et al.
# Submitted via: CDex 1.51
#
DISCID=de0b9210
DTITLE=Various Artist - Blues
DYEAR=1991
DGENRE=Blues
TTITLE0=Kokomo Arnold - Bad Luck Blues
TTITLE1=Big Bill Broonzy - Come Home Early
TTITLE2=Leroy Carr - Big Four Blues
TTITLE3=Champion Jack Dupree - Warehouse Man Blues
TTITLE4=Sleepy John Estes - Someday Baby Blues
TTITLE5=Blind Boy Fuller - Homesick Blues
TTITLE6=Lowell Fulson - Miss Lillie Brown
TTITLE7=Jazz Gillum - Keyhole Blues
TTITLE8=Smokey Hogg - I Don't Want Nobody's Bloodstains On My Hands
TTITLE9=John Lee Hooker - Big Town Blues
TTITLE10=Lightnin' Hopkins - Black Cat Blues
TTITLE11=Peg Leg Howell - Broke And Hungry Blues
TTITLE12=Frankie "Half Pint" Jaxon - Callin' Corrine
TTITLE13=Blind Willie Johnson - Dark Was The Night
TTITLE14=Lonnie Johnson - Racketeer's Blues
TTITLE15=Robert Johnson - From Four Till Late
EXTD=YEAR: 1991
EXTT0=
EXTT1=
EXTT2=
EXTT3=
EXTT4=
EXTT5=
EXTT6=
EXTT7=
EXTT8=
EXTT9=
EXTT10=
EXTT11=
EXTT12=
EXTT13=
EXTT14=
EXTT15=
PLAYORDER=
